<mxfile host="app.diagrams.net" agent="Mozilla/5.0 (Windows NT 10.0; Win64; x64) AppleWebKit/537.36 (KHTML, like Gecko) Chrome/136.0.0.0 Safari/537.36" version="27.0.1">
  <diagram name="Page-1" id="H5iH3SWh5dnrYPrXUEGK">
    <mxGraphModel dx="2101" dy="660" grid="1" gridSize="10" guides="1" tooltips="1" connect="1" arrows="1" fold="1" page="1" pageScale="1" pageWidth="850" pageHeight="1100" math="0" shadow="0">
      <root>
        <mxCell id="0" />
        <mxCell id="1" parent="0" />
        <mxCell id="oddF10u0IyvZ6sUtadXk-1" value="" style="rounded=0;whiteSpace=wrap;html=1;" vertex="1" parent="1">
          <mxGeometry x="-50" y="150" width="160" height="130" as="geometry" />
        </mxCell>
        <mxCell id="oddF10u0IyvZ6sUtadXk-6" style="edgeStyle=orthogonalEdgeStyle;rounded=0;orthogonalLoop=1;jettySize=auto;html=1;entryX=0;entryY=0.5;entryDx=0;entryDy=0;" edge="1" parent="1" source="oddF10u0IyvZ6sUtadXk-2" target="oddF10u0IyvZ6sUtadXk-4">
          <mxGeometry relative="1" as="geometry" />
        </mxCell>
        <mxCell id="oddF10u0IyvZ6sUtadXk-2" value="&lt;b&gt;Internet&lt;/b&gt;" style="ellipse;shape=cloud;whiteSpace=wrap;html=1;" vertex="1" parent="1">
          <mxGeometry x="230" y="175" width="120" height="80" as="geometry" />
        </mxCell>
        <mxCell id="oddF10u0IyvZ6sUtadXk-4" value="" style="rounded=1;whiteSpace=wrap;html=1;fillColor=#dae8fc;strokeColor=#6c8ebf;" vertex="1" parent="1">
          <mxGeometry x="440" y="110" width="200" height="210" as="geometry" />
        </mxCell>
        <mxCell id="oddF10u0IyvZ6sUtadXk-5" style="edgeStyle=orthogonalEdgeStyle;rounded=0;orthogonalLoop=1;jettySize=auto;html=1;entryX=0.16;entryY=0.55;entryDx=0;entryDy=0;entryPerimeter=0;" edge="1" parent="1" source="oddF10u0IyvZ6sUtadXk-1" target="oddF10u0IyvZ6sUtadXk-2">
          <mxGeometry relative="1" as="geometry" />
        </mxCell>
        <mxCell id="oddF10u0IyvZ6sUtadXk-7" value="&lt;b&gt;US&lt;/b&gt;" style="text;html=1;align=center;verticalAlign=middle;resizable=0;points=[];autosize=1;strokeColor=none;fillColor=none;" vertex="1" parent="1">
          <mxGeometry x="480" y="110" width="40" height="30" as="geometry" />
        </mxCell>
        <mxCell id="oddF10u0IyvZ6sUtadXk-8" value="&lt;b&gt;Prime&lt;/b&gt;" style="ellipse;whiteSpace=wrap;html=1;fillColor=#d5e8d4;strokeColor=#82b366;" vertex="1" parent="1">
          <mxGeometry x="480" y="175" width="120" height="80" as="geometry" />
        </mxCell>
        <mxCell id="oddF10u0IyvZ6sUtadXk-9" value="&lt;b&gt;IN&lt;/b&gt;" style="text;html=1;align=center;verticalAlign=middle;resizable=0;points=[];autosize=1;strokeColor=none;fillColor=none;" vertex="1" parent="1">
          <mxGeometry x="-50" y="150" width="40" height="30" as="geometry" />
        </mxCell>
        <mxCell id="oddF10u0IyvZ6sUtadXk-15" style="edgeStyle=orthogonalEdgeStyle;rounded=0;orthogonalLoop=1;jettySize=auto;html=1;" edge="1" parent="1" source="oddF10u0IyvZ6sUtadXk-10" target="oddF10u0IyvZ6sUtadXk-8">
          <mxGeometry relative="1" as="geometry">
            <Array as="points">
              <mxPoint x="510" y="150" />
              <mxPoint x="510" y="155" />
              <mxPoint x="540" y="155" />
            </Array>
          </mxGeometry>
        </mxCell>
        <mxCell id="oddF10u0IyvZ6sUtadXk-10" value="" style="html=1;strokeWidth=1;shadow=0;dashed=0;shape=mxgraph.ios7.misc.vpn;fillColor=#007AFF;strokeColor=none;buttonText=;strokeColor2=#222222;fontColor=#222222;fontSize=8;verticalLabelPosition=bottom;verticalAlign=top;align=center;sketch=0;" vertex="1" parent="1">
          <mxGeometry x="440" y="135" width="50" height="40" as="geometry" />
        </mxCell>
        <mxCell id="oddF10u0IyvZ6sUtadXk-13" value="" style="html=1;verticalLabelPosition=bottom;align=center;labelBackgroundColor=#ffffff;verticalAlign=top;strokeWidth=2;strokeColor=#0080F0;shadow=0;dashed=0;shape=mxgraph.ios7.icons.user;" vertex="1" parent="1">
          <mxGeometry x="30" y="175" width="50" height="40" as="geometry" />
        </mxCell>
        <mxCell id="oddF10u0IyvZ6sUtadXk-17" value="" style="edgeStyle=orthogonalEdgeStyle;rounded=0;orthogonalLoop=1;jettySize=auto;html=1;entryX=0.016;entryY=0.393;entryDx=0;entryDy=0;entryPerimeter=0;" edge="1" parent="1" source="oddF10u0IyvZ6sUtadXk-13" target="oddF10u0IyvZ6sUtadXk-16">
          <mxGeometry relative="1" as="geometry">
            <mxPoint x="80" y="195" as="sourcePoint" />
            <mxPoint x="441" y="151" as="targetPoint" />
            <Array as="points" />
          </mxGeometry>
        </mxCell>
        <mxCell id="oddF10u0IyvZ6sUtadXk-18" style="edgeStyle=orthogonalEdgeStyle;rounded=0;orthogonalLoop=1;jettySize=auto;html=1;" edge="1" parent="1" source="oddF10u0IyvZ6sUtadXk-16" target="oddF10u0IyvZ6sUtadXk-10">
          <mxGeometry relative="1" as="geometry" />
        </mxCell>
        <mxCell id="oddF10u0IyvZ6sUtadXk-16" value="" style="html=1;verticalLabelPosition=bottom;align=center;labelBackgroundColor=#ffffff;verticalAlign=top;strokeWidth=2;strokeColor=#0080F0;shadow=0;dashed=0;shape=mxgraph.ios7.icons.smartphone;" vertex="1" parent="1">
          <mxGeometry x="220" y="135" width="18" height="30" as="geometry" />
        </mxCell>
        <mxCell id="oddF10u0IyvZ6sUtadXk-19" value="" style="sketch=0;aspect=fixed;pointerEvents=1;shadow=0;dashed=0;html=1;strokeColor=none;labelPosition=center;verticalLabelPosition=bottom;verticalAlign=top;align=center;fillColor=#00188D;shape=mxgraph.azure.laptop" vertex="1" parent="1">
          <mxGeometry x="40" y="435" width="100" height="60" as="geometry" />
        </mxCell>
        <mxCell id="oddF10u0IyvZ6sUtadXk-20" value="" style="rounded=1;whiteSpace=wrap;html=1;" vertex="1" parent="1">
          <mxGeometry x="260" y="340" width="180" height="250" as="geometry" />
        </mxCell>
        <mxCell id="oddF10u0IyvZ6sUtadXk-22" value="&lt;b&gt;Internet&lt;/b&gt;" style="ellipse;shape=cloud;whiteSpace=wrap;html=1;" vertex="1" parent="1">
          <mxGeometry x="550" y="425" width="120" height="80" as="geometry" />
        </mxCell>
        <mxCell id="oddF10u0IyvZ6sUtadXk-23" style="edgeStyle=orthogonalEdgeStyle;rounded=0;orthogonalLoop=1;jettySize=auto;html=1;entryX=0.067;entryY=0.657;entryDx=0;entryDy=0;entryPerimeter=0;exitX=1;exitY=0.5;exitDx=0;exitDy=0;" edge="1" parent="1" source="oddF10u0IyvZ6sUtadXk-25" target="oddF10u0IyvZ6sUtadXk-22">
          <mxGeometry relative="1" as="geometry" />
        </mxCell>
        <mxCell id="oddF10u0IyvZ6sUtadXk-25" value="&lt;b&gt;Cache&lt;/b&gt;" style="ellipse;whiteSpace=wrap;html=1;aspect=fixed;" vertex="1" parent="1">
          <mxGeometry x="340" y="420" width="80" height="80" as="geometry" />
        </mxCell>
        <mxCell id="oddF10u0IyvZ6sUtadXk-26" style="edgeStyle=orthogonalEdgeStyle;rounded=0;orthogonalLoop=1;jettySize=auto;html=1;" edge="1" parent="1" source="oddF10u0IyvZ6sUtadXk-19" target="oddF10u0IyvZ6sUtadXk-25">
          <mxGeometry relative="1" as="geometry" />
        </mxCell>
        <mxCell id="oddF10u0IyvZ6sUtadXk-27" value="" style="sketch=0;aspect=fixed;pointerEvents=1;shadow=0;dashed=0;html=1;strokeColor=none;labelPosition=center;verticalLabelPosition=bottom;verticalAlign=top;align=center;fillColor=#00188D;shape=mxgraph.azure.laptop" vertex="1" parent="1">
          <mxGeometry x="40" y="550" width="100" height="60" as="geometry" />
        </mxCell>
        <mxCell id="oddF10u0IyvZ6sUtadXk-28" style="edgeStyle=orthogonalEdgeStyle;rounded=0;orthogonalLoop=1;jettySize=auto;html=1;entryX=0.624;entryY=0.941;entryDx=0;entryDy=0;entryPerimeter=0;" edge="1" parent="1" source="oddF10u0IyvZ6sUtadXk-27" target="oddF10u0IyvZ6sUtadXk-25">
          <mxGeometry relative="1" as="geometry" />
        </mxCell>
      </root>
    </mxGraphModel>
  </diagram>
</mxfile>
